<svg xmlns="http://www.w3.org/2000/svg" viewBox="0 0 336.19 151.31"><defs><style>.cls-1,.cls-2,.cls-3,.cls-4{fill:none;stroke:#ed1c24;stroke-miterlimit:10;stroke-width:4px;}.cls-1{opacity:0.59;}.cls-2{opacity:0.5;}.cls-3{opacity:0.48;}</style></defs><g id="レイヤー_2" data-name="レイヤー 2"><g id="レイヤー_1-2" data-name="レイヤー 1"><path d="M9.35,30.14c0,.78-.48.92-2.82.92-1.23,0-1.4-.11-1.4-.82.21-6,.24-9.72.24-17.47,0-7,0-8.64-.2-11.53A35.79,35.79,0,0,1,9.72,3.52h13c.91-1,1.22-1.29,2.14-2.28,1.36,1,1.77,1.29,3,2.28.34.27.48.44.48.65S28,4.71,27,5.25l0,5.44c0,10.17,0,12.38.24,19.07,0,.41-.07.58-.24.72a5.71,5.71,0,0,1-2.55.37c-1.16,0-1.43-.1-1.43-.64V28.06H9.35ZM23,4.23H9.35V14.91H23ZM9.35,15.62V27.35H23V15.62Z"/><path d="M52.12,8.58A18.66,18.66,0,0,0,53.85,12a24.48,24.48,0,0,0,8.27,7.65,24,24,0,0,0,4.48,2.11v.37a3.52,3.52,0,0,0-2,1.63,12.33,12.33,0,0,0-.75,1.5c-.13.34-.27.47-.4.47s-.51-.2-1.36-.81a24.36,24.36,0,0,1-7.18-8.16,31.85,31.85,0,0,1-3.12-7.45l.06,14.11h1.67c.75-1,1.46-1.87,2.14-2.72a42.16,42.16,0,0,1,3.47,2.93c.14.13.2.23.2.3s-.17.21-.34.21H51.81c.11,5.16.11,5.16.17,7,0,.75-.3.85-2.61.85-1.26,0-1.43-.1-1.47-.71.11-2.52.14-3.09.17-7.1H43.65a9.28,9.28,0,0,0-2.1.17l-.17-1.13a10.76,10.76,0,0,0,2.27.24h4.46l.07-10.1a28.33,28.33,0,0,1-6.84,8,36.53,36.53,0,0,1-7.54,4.89l-.24-.34a43.92,43.92,0,0,0,9-9.89,44.08,44.08,0,0,0,4-7.45h-9a10.61,10.61,0,0,0-2.38.24L35,7.56a11.56,11.56,0,0,0,2.59.31H48.07V4.13A21.69,21.69,0,0,0,47.87.6c1.09.13,2,.2,2.52.27,2.31.24,2.75.37,2.75.78s-.34.54-1.39.88V7.87H59c1.12-1.36,1.46-1.77,2.58-3,1.74,1.36,2.28,1.8,3.95,3.26.1.13.17.2.17.27s-.17.2-.34.2Z"/><path d="M82.69,29a17.69,17.69,0,0,0,8.22-4.82,12.65,12.65,0,0,0,3.4-8.95c0-5.81-3.53-9.28-9.38-9.28A10.32,10.32,0,0,0,83.57,6a5.06,5.06,0,0,1,1.56,3.64c0,2.72-1.73,7.48-4.18,11.59-2.21,3.67-4.18,5.54-5.88,5.54a2.23,2.23,0,0,1-1.83-1,8.22,8.22,0,0,1-.79-2.25A5.77,5.77,0,0,0,71,21a6.57,6.57,0,0,1-1.32-3.91,11.19,11.19,0,0,1,2.85-6.8A16.89,16.89,0,0,1,85.34,4.74c7.58,0,13,4.8,13,11.53,0,4.93-2.72,8.87-7.64,11.15a25.64,25.64,0,0,1-7.86,2ZM76.33,9.64a11.56,11.56,0,0,0-3.64,8.09c0,2.35,1.16,4.76,2.31,4.76s3.37-2.82,5.58-7c1.7-3.2,2.72-6,2.72-7.52a4,4,0,0,0-.14-1.12,3.7,3.7,0,0,0-.27-.75A12.31,12.31,0,0,0,76.33,9.64Z"/><path d="M102.44,22.86a30,30,0,0,1,6.66,2.28c2,1,2.93,2.21,2.93,4,0,1.63-1,3.16-1.94,3.16-.24,0-.47-.17-.78-.54-.1-.14-.1-.14-1.73-2.82a19.89,19.89,0,0,0-5.27-5.75Z"/><path d="M14.31,74.2a42.27,42.27,0,0,0-2,6.06,15.07,15.07,0,0,0-.44,2.85,5.4,5.4,0,0,0,.48,2.08,2.94,2.94,0,0,1,.1.74,1.59,1.59,0,0,1-1.63,1.63c-1.4,0-3.2-1.32-4.49-3.26-1.7-2.58-2.55-6.15-2.55-10.74,0-.24,0-.24.07-3.23v-.55c0-2.72-.34-3.7-2-5.6A3.9,3.9,0,0,1,4.11,65a8.61,8.61,0,0,1,3.51,3.5,2.73,2.73,0,0,1,.3,1.33,5.42,5.42,0,0,1-.24,1.26,19.14,19.14,0,0,0-.74,5,13.53,13.53,0,0,0,.68,4.32,3.36,3.36,0,0,0,1.32,1.9c2.21-3.81,3.54-6,5-8.3Zm6.46-6.15a10.63,10.63,0,0,1,7,3.94,10.5,10.5,0,0,1,2.38,6.8c0,2.32-1.16,3.95-2.82,3.95A1.59,1.59,0,0,1,26,82c-.82-.91-1.53-1-5.2-1.12l-.07-.34c3-.88,4.28-1.29,4.83-1.53s.71-.41.71-1.09a13,13,0,0,0-1.09-4.89,8.84,8.84,0,0,0-4.55-4.63Z"/><path d="M36.48,67.13a5.69,5.69,0,0,0,4.83,2.18,14.78,14.78,0,0,0,2.45-.21,32.79,32.79,0,0,0,1-5.43c0-1.36-.82-2-2.79-2.08a2.92,2.92,0,0,1,2.31-.75c2.93,0,5.27,1.09,5.27,2.42,0,.44-.07.61-.68,1.36a14,14,0,0,0-2,3.91,11.89,11.89,0,0,0,5.27-2.28,1.68,1.68,0,0,1,1.39-.51,4.89,4.89,0,0,1,2,.54,1.2,1.2,0,0,1,.58,1c0,.65-.68,1.26-2.14,1.87a33.74,33.74,0,0,1-8,2.08,34.16,34.16,0,0,0-1.19,8.29,28.45,28.45,0,0,1,4.52-2,15.9,15.9,0,0,1,5.3-1c4.25,0,7.14,2.28,7.14,5.64a6.82,6.82,0,0,1-3.53,5.71,17,17,0,0,1-6.67,2,45,45,0,0,1-5.27.34c-.24,0-.68,0-1.22,0v-.38c4.15-.68,7.1-1.66,9.25-3s3.43-3.33,3.43-5.44-1.36-3.44-3.64-3.44a9.94,9.94,0,0,0-6.9,3.51,9.15,9.15,0,0,0-1.7,2.34,1.31,1.31,0,0,1-1.16.65c-1.25,0-2.82-1.84-2.82-3.37,0-.92,1.13-7,1.77-9.76-.54,0-.75,0-1,0-2.92,0-4.69-1.16-6.22-4Z"/><path d="M77.65,75.73c-.23.85-.54,2-.61,2.25l-.51,2a30.09,30.09,0,0,0-1.08,5.88c0,.13,0,.27.06,1a4.59,4.59,0,0,1,.07.92c0,1.16-.64,1.94-1.63,1.94-.82,0-1.5-.58-2-1.77a19.62,19.62,0,0,1-1.19-7.2A45.91,45.91,0,0,1,71,76.14a64,64,0,0,1,1.25-6.87,15.89,15.89,0,0,0,.58-3.56,5.71,5.71,0,0,0-1-3.3,5.31,5.31,0,0,1,3,2A6.06,6.06,0,0,1,76.67,68a3,3,0,0,1-.61,1.73,19.82,19.82,0,0,0-2.79,10.13,12.25,12.25,0,0,0,.37,3.27c.58-1.09.68-1.33,1.64-3.33.51-1.06,1-2,1.12-2.38l.88-1.77Zm2.38-6a6,6,0,0,0,4.36,1.66,15.72,15.72,0,0,0,3.94-.51c0-4.21-.1-5.27-.37-5.85-.24-.81-1.36-1.42-2.72-1.49a2.87,2.87,0,0,1,2.31-.75,8.69,8.69,0,0,1,3.53.75c.89.37,1.33.88,1.33,1.53a2.59,2.59,0,0,1-.34,1.12,9.89,9.89,0,0,0-.82,3.91,7.82,7.82,0,0,0,3-1.5,1.15,1.15,0,0,1,.85-.34c1.22,0,2.45.79,2.45,1.6,0,.55-.48,1-1.63,1.53a21.66,21.66,0,0,1-4.87,1.43V74a50.35,50.35,0,0,0,.48,7.51,13.33,13.33,0,0,1,4.45,2,3.28,3.28,0,0,1,1.47,2.79c0,1.22-.48,2-1.16,2-.44,0-.55-.07-2-1.53a10.07,10.07,0,0,0-2.72-2,2.24,2.24,0,0,1,0,.41c0,2.65-2.24,4.25-6,4.25-3.36,0-5.61-1.63-5.61-4,0-2.68,2.79-4.52,6.91-4.52.47,0,.88,0,1.56.1v-.61l-.07-3.16c0-1.36,0-2.69-.07-4a13.35,13.35,0,0,1-2.38.24,6.56,6.56,0,0,1-4.08-1.15A8.34,8.34,0,0,1,79.76,70Zm5.24,13.46c-2.55,0-4.15.85-4.15,2.24,0,1.09,1.33,1.84,3.3,1.84a4.68,4.68,0,0,0,3.2-1,2.86,2.86,0,0,0,.68-1.5c0-.2.06-.81.06-1,0-.06,0-.06,0-.06A8,8,0,0,0,85.27,83.18ZM92.58,60.4a9.14,9.14,0,0,1,3.13,1.91,4.22,4.22,0,0,1,1.53,3c0,.85-.41,1.4-1.06,1.4-.44,0-.71-.31-1.05-1.26a13.09,13.09,0,0,0-3-4.59Zm3.6-1.63a9.48,9.48,0,0,1,3.16,1.67,3.8,3.8,0,0,1,1.7,2.92c0,.82-.37,1.33-1,1.33s-.65-.21-1.09-1.16a12.1,12.1,0,0,0-3.26-4.32Z"/><path d="M133.21,76.89a18.75,18.75,0,0,1-3.16,8.36,9.38,9.38,0,0,1-7.41,4.29,4.67,4.67,0,0,1-3.85-1.64,7,7,0,0,1-1-3.6,19.7,19.7,0,0,1-.13-2.28c-.17-3.06-.85-4.18-2.59-4.18-1.56,0-3.12,1.09-4.55,3.13a22,22,0,0,0-3.06,6.8c-.37,1.09-.82,1.56-1.56,1.56s-1.13-.44-1.47-1.26a7.54,7.54,0,0,1-.54-2.41c0-.81.14-1.12,1-2.28,1.43-1.83,4.25-7,6.8-12.3,1.63-3.47,2.41-5.68,2.41-6.8s-.78-2-2.55-2.72a2.54,2.54,0,0,1,1.33-.34,9.41,9.41,0,0,1,4.49,1.66c1.15.79,1.7,1.47,1.7,2.25,0,.51-.14.78-.82,1.49a24.83,24.83,0,0,0-2.55,3.67c-2.38,3.81-2.38,3.81-3.81,6.16-1,1.77-1,1.77-1.63,2.72h0c2.11-1.87,3.85-2.72,5.55-2.72A4.39,4.39,0,0,1,120,79a10.19,10.19,0,0,1,.85,3.53c.27,1.64.51,2.38,1,2.79a2.14,2.14,0,0,0,1.42.44,8.7,8.7,0,0,0,5.44-2.65,16.13,16.13,0,0,0,4.18-6.32Z"/><path d="M162,77c1-1.09,1.36-1.43,2.41-2.55,1.5,1.16,1.94,1.53,3.43,2.76a.43.43,0,0,1,.17.3c0,.14-.17.21-.44.21H156a9.3,9.3,0,0,0,3.57,2.07,28.22,28.22,0,0,0,8.88,1.56v.34a3.81,3.81,0,0,0-2.08,2.69c-.27.75-.27.78-.54.78a16,16,0,0,1-4.76-1.87V85c0,.48.07,3.67.14,5.41,0,.71-.45.88-2.42.88-1,0-1.12-.07-1.12-.61v-1h-11.8v.81c0,.75-.34.89-2.38.89-.95,0-1.19-.1-1.19-.65v-.1c0-.65.07-2.69.14-6.12v-1.7A26.24,26.24,0,0,1,136,85.42l-.2-.37a35.29,35.29,0,0,0,9.35-7.34h-6a11.09,11.09,0,0,0-2.45.23l-.2-1.25a10.78,10.78,0,0,0,2.65.3h6.66a26.92,26.92,0,0,0,1.87-2.58h-2.92V75c0,.55-.38.65-2.18.65-1.19,0-1.36-.07-1.36-.65.07-1.94.1-3.19.1-5,0-2.25,0-3.2-.1-4.93a38.65,38.65,0,0,1,3.84,1.7h13.6c.75-.75,1-1,1.8-1.7,1.19.75,1.57,1,2.66,1.73.3.21.44.38.44.55s-.34.51-1.23.88v1.33c0,1.53,0,2.61.11,5v0c0,.48-.11.58-.48.72a9.32,9.32,0,0,1-2,.2c-.85,0-1.05-.1-1.05-.51v-.61h-7.21A29,29,0,0,1,149.73,77Zm-16.9-14c0-1.53,0-1.87-.1-3.23,4.83.44,5.06.48,5.06,1,0,.31-.34.48-1.39.75V63h6v-.88c0-.82,0-1.33-.07-2.35,4.66.41,5,.48,5,.92s-.34.51-1.4.75V63h3.47c1-1.16,1.33-1.5,2.41-2.62,1.63,1.19,2.14,1.57,3.74,2.82a.45.45,0,0,1,.17.31c0,.14-.13.2-.44.2H158.3v.38c0,.27,0,.58,0,1,0,.68-.38.78-2.42.78-1,0-1.22-.1-1.22-.61,0-.81,0-.85,0-1.6h-6c0,.55,0,.72,0,1.33a.7.7,0,0,1-.17.58,4.56,4.56,0,0,1-2.17.3c-1.06,0-1.33-.1-1.33-.54v-.1c0-.78,0-1.06.07-1.57h-6.05a11.83,11.83,0,0,0-2.35.21l-.2-1.23a11.67,11.67,0,0,0,2.65.31Zm13.74,4.45H144.74v2.72h14.11Zm-14.11,3.44v2.78h14.11V70.91Zm4.31,6.8a24.29,24.29,0,0,1-3.16,2.85l.14.1h11.49l.07,0a12.9,12.9,0,0,1-2.35-2.92Zm8.64,3.67h-11.8v3.26h11.8Zm-11.8,4v3.57h11.8V85.35Z"/><path d="M181.25,60.3A6.67,6.67,0,0,0,184.86,63a11.24,11.24,0,0,0,3.16.68,3,3,0,0,1,2.41,1.09,3.21,3.21,0,0,1,.95,2.11,1.3,1.3,0,0,1-1.46,1.32,12.35,12.35,0,0,1-1.9-.3,10.88,10.88,0,0,0-1.43-.07,24.53,24.53,0,0,0-6.39.88c-.92.27-1.46.75-1.46,1.26a3.91,3.91,0,0,0,.68,1.77,3.59,3.59,0,0,1,.23,1.36c0,.24,0,.71-.1,1.46-.17,2.35-.3,4.69-.3,5.3v.31C183.53,77.26,186.93,76,190,76c4.39,0,7.35,2.42,7.35,6a6.68,6.68,0,0,1-3.1,5.57c-3,2-7.14,3-13,3.06l-.1-.4c4-.75,6.56-1.74,8.83-3.4s3.27-3.4,3.27-5.58a3.55,3.55,0,0,0-3.84-3.84,9,9,0,0,0-6,2.72,13.36,13.36,0,0,0-2.72,3.37c-.34.64-.41.78-.61,1a1.38,1.38,0,0,1-.95.41,3.16,3.16,0,0,1-2.38-1.64,4.37,4.37,0,0,1-.79-2,4.18,4.18,0,0,1,.28-1.25c.06-.34.17-1,.37-2.28s.31-2.25.41-2.86a33.65,33.65,0,0,0,.47-3.57,2,2,0,0,0,0-.37V70.5a2.44,2.44,0,0,1,1.6-2.48,24.76,24.76,0,0,1,3.8-1.43l2.38-.82a8,8,0,0,1-4.35-5.3Z"/><path d="M233.24,79.64a7.57,7.57,0,0,0-.45.85A17.38,17.38,0,0,1,230.72,84a14.15,14.15,0,0,1-11,5.91c-2.82,0-5.07-1.09-6.29-3.06-.95-1.5-1.33-3.64-1.33-7.31,0-2.11,0-3,.45-10.91,0-1,.07-2,.07-2.82,0-2.42-.52-3.23-2.72-4.18a1.65,1.65,0,0,1,1.08-.34,9.89,9.89,0,0,1,4.32,1.22c1.5.78,2.18,1.6,2.18,2.48a3.19,3.19,0,0,1-.41,1.43c-1,2.28-2.25,10.5-2.25,15.13,0,3.26,1.47,4.72,4.66,4.72a17.11,17.11,0,0,0,9-2.92,18,18,0,0,0,4.39-3.94Z"/><path d="M253.26,60.54a11.93,11.93,0,0,1,4.29,1.73,4,4,0,0,1,1.66,2.89,1.86,1.86,0,0,1-1.76,1.94c-.38,0-.51-.07-1.23-.41a9.57,9.57,0,0,0-3.33-.92c-2-.27-4-.47-4.72-.47a3.54,3.54,0,0,0-1.06.1.73.73,0,0,0-.47.75c0,.47.3,1.22,1.49,3.4.65,1.19.68,1.25,1,1.76,5-2.75,9.18-4.11,12.62-4.11,4.42,0,7.27,2.35,7.27,6a5.78,5.78,0,0,1-2.35,4.45A8.21,8.21,0,0,1,261.8,79a12.61,12.61,0,0,1-8-2.89l.21-.41a12.4,12.4,0,0,0,5,1c3.77,0,6.09-1.7,6.09-4.48,0-2.25-1.57-3.61-4.19-3.61a13.47,13.47,0,0,0-6.08,1.77,31.94,31.94,0,0,0-4.76,2.86c1.46,2.72,2.85,5.57,4,8.22,1.36,3.17,1.87,4.83,1.87,6.33,0,1.76-1.09,3.12-2.55,3.12-.65,0-1.05-.37-1.29-1.12a16.28,16.28,0,0,1-.44-2.65,50.55,50.55,0,0,0-3.78-12.51,37.51,37.51,0,0,0-3.5,2.79c-.78.78-1.15,1-1.8,1-1.84,0-4.18-2.55-4.18-4.52a2.33,2.33,0,0,1,.13-.68,3.11,3.11,0,0,0,2.59,1.8c.88,0,2.48-.71,5.68-2.52a22.23,22.23,0,0,0-2.49-3.84c-.81-.88-.91-1.09-.91-1.66a3.22,3.22,0,0,1,3.16-3,2.82,2.82,0,0,1,1.25.27c.55.28.68.28,2.32.28a30.12,30.12,0,0,0,4.76-.41c.57-.1.71-.21.71-.41a3,3,0,0,0-.68-1.33,6.22,6.22,0,0,0-1.87-1.53Z"/><path d="M281.42,91a15.46,15.46,0,0,0,4.18-2.93,9.89,9.89,0,0,0,2.92-5.33,3.7,3.7,0,0,1-2.11.61c-2.58,0-4.55-2.38-4.55-5.54s2-5.48,4.83-5.48a4,4,0,0,1,2.07.58V71.28c0-.82,0-1.09,0-2.28a31.49,31.49,0,0,0-10.61,2.79,3.06,3.06,0,0,1-1,.2c-1,0-2-.74-2.95-2.1a5.55,5.55,0,0,1-1.06-2.69,1.78,1.78,0,0,1,.14-.58,4.14,4.14,0,0,0,3.64,2c1,0,1,0,7.07-.89,1.36-.2,2.38-.3,4.69-.57-.07-2.59-.24-3.67-.72-4.32A4,4,0,0,0,285,61.42a2.65,2.65,0,0,1,2.14-.68,13.43,13.43,0,0,1,3.84.58c1.33.44,1.94,1,1.94,1.77a1.88,1.88,0,0,1-.34,1,5.43,5.43,0,0,0-.75,2.62c4.73-.41,5-.44,6.15-1a3.21,3.21,0,0,1,1.47-.34,5.94,5.94,0,0,1,3.29,1.43,1.46,1.46,0,0,1,.61,1.25,1.08,1.08,0,0,1-1.22,1,18.82,18.82,0,0,1-2-.24,42.67,42.67,0,0,0-5.58-.34,28,28,0,0,0-2.89.14c-.14,1.8-.24,4-.24,5.27v.71a8.87,8.87,0,0,1,1.19,4.73,10.92,10.92,0,0,1-4.72,9.28,19,19,0,0,1-6.29,2.69Zm5.1-17.68c-1.36,0-2.42,1.43-2.42,3.26,0,2.15,1,3.64,2.52,3.64,1.32,0,2.11-1.09,2.11-3C288.73,74.75,287.91,73.32,286.52,73.32Z"/><path d="M320.31,74.2a42.27,42.27,0,0,0-2,6.06,15.07,15.07,0,0,0-.44,2.85,5.4,5.4,0,0,0,.48,2.08,2.94,2.94,0,0,1,.1.74,1.59,1.59,0,0,1-1.63,1.63c-1.4,0-3.2-1.32-4.49-3.26-1.7-2.58-2.55-6.15-2.55-10.74,0-.24,0-.24.07-3.23v-.55c0-2.72-.34-3.7-2-5.6a3.9,3.9,0,0,1,2.31.81,8.61,8.61,0,0,1,3.51,3.5,2.73,2.73,0,0,1,.3,1.33,5.42,5.42,0,0,1-.24,1.26,19.14,19.14,0,0,0-.74,5,13.53,13.53,0,0,0,.68,4.32,3.36,3.36,0,0,0,1.32,1.9c2.21-3.81,3.54-6,5-8.3Zm6.46-6.15a10.63,10.63,0,0,1,7,3.94,10.5,10.5,0,0,1,2.38,6.8c0,2.32-1.16,3.95-2.82,3.95A1.59,1.59,0,0,1,332,82c-.82-.91-1.53-1-5.2-1.12l-.07-.34c3-.88,4.28-1.29,4.83-1.53s.71-.41.71-1.09a13,13,0,0,0-1.09-4.89,8.84,8.84,0,0,0-4.55-4.63Z"/><path d="M3.88,128.4a9.73,9.73,0,0,0-2.32.24l-.2-1.23a9.59,9.59,0,0,0,2.52.28H14.11v-3.88a25.82,25.82,0,0,0-.24-4.08c4.25.44,4.49.48,4.93.65.27.13.41.27.41.44,0,.34-.34.54-1.4.88v6h7.25l2.71-3.06c1.71,1.36,2.21,1.8,3.85,3.26a.57.57,0,0,1,.17.31c0,.1-.17.2-.34.2H18.05a19.13,19.13,0,0,0,4,6.66,22.41,22.41,0,0,0,6.76,5,28.83,28.83,0,0,0,3.81,1.6V142a3.69,3.69,0,0,0-1.87,1.6,9.47,9.47,0,0,0-.92,1.83c-.16.41-.27.55-.44.55-.44,0-2.24-1.33-3.77-2.76a26,26,0,0,1-6-8.36,30.3,30.3,0,0,1-1.84-5.51l.07,12C18,146.11,18,149,18,150c0,.82-.38.95-2.48.95-1.5,0-1.64-.06-1.64-.74.07-2.15.17-6.4.17-8.71l.07-7.58A29.62,29.62,0,0,1,7.45,142a36.43,36.43,0,0,1-7.18,4.73L0,146.42c4.45-4,6.19-6,8.81-10.13a44.49,44.49,0,0,0,4-7.89Z"/><path d="M48.69,148a17.69,17.69,0,0,0,8.22-4.82,12.65,12.65,0,0,0,3.4-8.95c0-5.81-3.53-9.28-9.38-9.28a10.32,10.32,0,0,0-1.36.07,5.06,5.06,0,0,1,1.56,3.64c0,2.72-1.73,7.48-4.18,11.59-2.21,3.67-4.18,5.54-5.88,5.54a2.23,2.23,0,0,1-1.83-1,8.22,8.22,0,0,1-.79-2.25A5.77,5.77,0,0,0,37,140a6.57,6.57,0,0,1-1.32-3.91,11.19,11.19,0,0,1,2.85-6.8,16.89,16.89,0,0,1,12.82-5.58c7.58,0,13,4.8,13,11.53,0,4.93-2.72,8.87-7.64,11.15a25.64,25.64,0,0,1-7.86,2Zm-6.36-19.34a11.56,11.56,0,0,0-3.64,8.09c0,2.35,1.16,4.76,2.31,4.76s3.37-2.82,5.58-7c1.7-3.2,2.72-6,2.72-7.52a4,4,0,0,0-.14-1.12,3.7,3.7,0,0,0-.27-.75A12.31,12.31,0,0,0,42.33,128.64Z"/><path d="M85.13,129.11a32.1,32.1,0,0,1-3.63,2.76,13.3,13.3,0,0,1,3.87,4.21,15.05,15.05,0,0,1,2.11,8c0,2.58-.54,4.38-1.6,5.4a6.18,6.18,0,0,1-3.3,1.33l-.74.07c-.34,0-.41-.11-.45-.65a2.83,2.83,0,0,0-.54-1.56,6.49,6.49,0,0,0-2.38-1.13l-1-.27-.58-.17v-.37c1.46.14,4.79.27,5.71.27s1.23-.17,1.4-1.36a26.06,26.06,0,0,0,.2-2.89c0-.54,0-.88,0-1.46a39.83,39.83,0,0,1-5,3.16,41.87,41.87,0,0,1-10.74,3.84l-.17-.3a51,51,0,0,0,10.4-6.09,37.87,37.87,0,0,0,5-4.32,13.8,13.8,0,0,0-.45-1.49c-3.77,2.82-8.53,4.86-14.61,6.29l-.17-.34a43.07,43.07,0,0,0,9.14-5.34,42.21,42.21,0,0,0,4.15-3.43c-.38-.48-.48-.65-.85-1.09a34.88,34.88,0,0,1-11.63,4.32l-.2-.34a35.64,35.64,0,0,0,11-7.08H76.33a10.75,10.75,0,0,0-2.28.21l-.27-1.19a12.28,12.28,0,0,0,2.62.27H89.79c.95-1,1.23-1.33,2.14-2.35.79.48.92.58,1.5,1a18.73,18.73,0,0,0,.92-2.45H73.54a4.33,4.33,0,0,1,0,.65c0,3.16-1.16,5.16-3,5.16a2.22,2.22,0,0,1-2-2.45,1.48,1.48,0,0,1,.3-1,7.15,7.15,0,0,1,1.53-1c1.43-.88,2-2,2.25-4.39H73a11.3,11.3,0,0,1,.48,2.32H82v-2.08a13.21,13.21,0,0,0-.17-2.21c5.37.48,5.51.51,5.51,1,0,.28-.44.55-1.46.82v2.52h8.23a25.48,25.48,0,0,1,1.9-2,36.35,36.35,0,0,1,3.74,2.72c.24.24.37.41.37.54a.43.43,0,0,1-.2.34c-.38.21-.38.21-2,.24-1,.55-1,.55-2.44,1.22l-1.26.62c.61.4.92.61,1.8,1.22.1.1.14.14.14.2s-.11.17-.28.17h-8.9a22.81,22.81,0,0,0,2.61,6.8,22.21,22.21,0,0,0,4-5.5c3.4,1.63,4.65,2.38,4.65,2.72s-.47.47-1.56.47h-.41A43.92,43.92,0,0,1,90,136.66a18.41,18.41,0,0,0,5.17,5.24,15.71,15.71,0,0,0,5.1,2.38l-.11.37a3.74,3.74,0,0,0-2.75,1.63,7.71,7.71,0,0,0-.75,1.29c-.1.34-.2.45-.37.45s-.72-.34-1.5-1c-4.45-3.7-7.51-10.16-8.56-17.92Z"/><path d="M105.23,135c.68,0,1.26-.41,3-2.17,3.26-3.3,3.94-3.91,5-4.42a3.78,3.78,0,0,1,2-.51c1.4,0,2.42.64,6.06,3.84a41,41,0,0,0,7.95,5.85,9.78,9.78,0,0,0,2.28.95c1.29.44,2.41,2.34,2.41,4.18,0,1-.51,1.73-1.25,1.73s-2.49-.81-4.32-2.17a52.43,52.43,0,0,1-8.5-8.43c-3.13-3.68-3.88-4.36-4.9-4.36-.85,0-1.76.82-3,2.55a25.4,25.4,0,0,0-2.62,5.27c-.28.75-.38,1-.65,1.23a1.58,1.58,0,0,1-1.09.44,5.79,5.79,0,0,1-3.53-2,5,5,0,0,1-1.5-3.06,5.09,5.09,0,0,1,.14-.74A3.24,3.24,0,0,0,105.23,135Z"/><path d="M145.48,146.69a4.59,4.59,0,1,1-4.58-4.59A4.59,4.59,0,0,1,145.48,146.69Zm-7.95,0a3.37,3.37,0,1,0,6.73,0,3.37,3.37,0,0,0-6.73,0Z"/></g><g id="書き順"><polyline class="cls-1" points="6.53 31.06 6.87 2 25.41 2 25.41 30.82"/><line class="cls-2" x1="8.8" y1="15.62" x2="23.28" y2="15.62"/><line class="cls-2" x1="8.8" y1="27.88" x2="23.28" y2="27.88"/><line class="cls-3" x1="35.05" y1="8.15" x2="65.55" y2="8.11"/><line class="cls-4" x1="50.08" y1="0.83" x2="50.08" y2="31.97"/><line class="cls-4" x1="47.63" y1="10.02" x2="33.8" y2="26.26"/><line class="cls-4" x1="52.03" y1="10.25" x2="64.56" y2="23.78"/><line class="cls-4" x1="41.46" y1="23.78" x2="59.09" y2="23.65"/><polyline class="cls-4" points="84 6.53 74.67 26.26 69.83 15.62 75.48 7.68 83.3 4.23 91.41 6.1 96.63 13.02 96.63 19.31 91.63 26.02 82.69 28.98"/><line class="cls-4" x1="102.31" y1="23.2" x2="111.58" y2="31.06"/></g></g></svg>